<?xml version="1.0" standalone="no"?>
<!DOCTYPE svg PUBLIC "-//W3C//DTD SVG 20010904//EN"
 "http://www.w3.org/TR/2001/REC-SVG-20010904/DTD/svg10.dtd">
<svg version="1.0" xmlns="http://www.w3.org/2000/svg"
 width="1800.000000pt" height="1800.000000pt" viewBox="0 0 1800.000000 1800.000000"
 preserveAspectRatio="xMidYMid meet">
<metadata>
Created by potrace 1.14, written by Peter Selinger 2001-2017
</metadata>
<g transform="translate(0.000000,1800.000000) scale(0.100000,-0.100000)"
fill="#000000" stroke="none">
<path d="M8416 15110 c-88 -5 -216 -18 -285 -29 -69 -11 -168 -25 -219 -31
-51 -6 -123 -17 -160 -25 -37 -9 -112 -24 -167 -35 -94 -18 -232 -56 -370
-102 -33 -10 -96 -30 -140 -43 -44 -13 -98 -32 -120 -41 -22 -9 -67 -25 -100
-35 -33 -9 -91 -30 -130 -47 -115 -48 -581 -285 -685 -348 -19 -11 -69 -40
-110 -64 -184 -106 -488 -299 -530 -335 -14 -13 -37 -29 -51 -36 -41 -22 -106
-70 -165 -121 -30 -27 -58 -48 -64 -48 -5 0 -33 -22 -62 -49 -29 -27 -89 -80
-133 -119 -44 -39 -91 -83 -105 -99 -14 -15 -40 -41 -58 -58 -32 -30 -167
-164 -260 -260 -27 -27 -57 -63 -67 -80 -10 -16 -44 -56 -74 -87 -137 -139
-160 -165 -179 -203 -11 -22 -39 -58 -62 -80 -23 -22 -50 -57 -61 -77 -10 -20
-38 -54 -60 -75 -23 -21 -52 -61 -65 -90 -13 -29 -39 -69 -58 -90 -18 -21 -48
-69 -65 -108 -19 -40 -45 -81 -65 -96 -18 -15 -47 -55 -65 -89 -18 -34 -39
-64 -47 -67 -24 -9 -51 -65 -74 -153 -13 -47 -38 -112 -56 -145 -18 -33 -46
-98 -63 -144 -17 -47 -42 -96 -55 -110 -39 -43 -57 -88 -82 -214 -20 -101 -32
-133 -76 -214 -53 -96 -63 -106 -177 -178 -9 -5 -20 -16 -24 -22 -4 -7 -21
-13 -38 -13 -16 0 -42 -6 -57 -14 -30 -15 -60 -21 -177 -36 -87 -12 -828 -14
-1120 -4 -287 10 -482 -17 -567 -78 l-28 -19 2 -1807 3 -1807 54 -32 c29 -17
74 -37 100 -43 29 -8 247 -15 606 -20 765 -11 763 -11 915 -56 69 -21 152 -38
185 -40 48 -2 64 -8 78 -25 10 -12 15 -29 13 -36 -3 -8 -1 -11 4 -8 6 3 10 1
10 -5 0 -6 38 -48 84 -93 l84 -82 27 -95 c15 -52 39 -124 55 -160 16 -36 36
-94 45 -130 9 -36 21 -82 26 -102 5 -21 27 -58 48 -82 22 -25 49 -71 61 -103
12 -32 39 -82 61 -110 28 -37 45 -75 58 -126 19 -78 42 -122 72 -137 9 -6 32
-35 49 -65 17 -30 48 -67 67 -82 21 -16 47 -52 63 -85 15 -32 44 -76 63 -97
20 -22 45 -58 57 -80 11 -22 38 -55 61 -73 23 -18 57 -56 75 -85 19 -28 46
-58 59 -67 13 -9 36 -37 51 -63 15 -27 50 -70 79 -98 28 -27 58 -59 66 -70 8
-12 29 -31 46 -43 18 -13 47 -43 64 -68 18 -24 47 -53 65 -63 17 -10 39 -32
49 -48 9 -16 33 -40 53 -53 21 -13 60 -45 87 -73 148 -145 288 -277 296 -277
5 0 33 -22 63 -50 31 -27 68 -56 83 -64 15 -8 41 -28 57 -45 17 -17 34 -31 39
-31 6 0 26 -12 46 -28 19 -15 54 -38 78 -52 51 -30 274 -178 323 -215 198
-148 654 -382 935 -479 39 -13 115 -40 170 -61 55 -20 138 -47 185 -60 47 -12
114 -31 150 -42 36 -12 99 -26 140 -33 41 -7 99 -21 128 -31 30 -10 96 -26
146 -34 50 -9 141 -27 201 -40 61 -13 175 -29 255 -35 80 -6 219 -20 310 -31
327 -38 904 -36 1260 6 69 8 199 19 290 25 106 7 200 20 265 35 55 14 137 32
183 40 45 9 102 24 126 34 23 11 69 24 102 30 52 11 153 39 294 85 25 8 95 33
155 56 61 23 130 48 155 57 124 41 280 109 455 198 83 42 164 84 180 92 17 8
41 21 55 29 14 8 52 28 85 43 33 15 66 35 73 43 7 9 27 22 45 29 18 7 53 27
79 43 26 17 76 49 110 70 110 69 212 135 253 163 21 16 61 40 87 56 26 15 48
31 48 35 0 4 17 18 38 32 20 13 56 41 79 62 24 21 47 38 53 38 10 0 73 54 192
163 31 29 86 77 123 107 37 30 78 66 91 80 43 44 212 212 304 302 49 47 96
100 104 117 9 16 33 42 55 58 21 15 51 47 66 71 15 23 42 54 60 68 18 13 46
50 63 82 17 31 44 67 61 80 17 12 42 44 55 70 13 26 43 64 65 84 24 21 52 61
66 91 13 30 41 75 63 100 22 25 48 69 57 98 10 29 35 71 56 94 20 22 54 74 73
115 20 41 51 94 69 116 25 31 40 65 56 130 11 49 37 121 56 161 19 40 46 115
59 166 26 104 37 128 76 173 15 17 37 52 49 77 13 26 37 57 54 68 50 34 118
102 128 127 7 17 16 22 44 22 34 0 152 28 208 49 78 30 177 34 877 35 l715 1
87 42 c100 48 108 58 135 184 21 96 22 417 9 2299 -7 1061 -8 1080 -50 1145
-24 37 -111 82 -190 99 -89 20 -196 21 -556 7 -608 -24 -954 -19 -1070 15 -30
8 -80 25 -110 36 -30 11 -70 23 -89 28 -18 5 -46 21 -62 36 -16 15 -49 39 -73
53 -85 50 -144 102 -197 173 -84 112 -86 115 -99 202 -17 120 -37 189 -74 259
-19 34 -41 87 -50 117 -16 55 -29 80 -77 142 -15 18 -39 67 -54 108 -16 41
-43 95 -61 120 -17 25 -42 76 -54 114 -15 45 -36 84 -60 110 -21 23 -51 70
-67 106 -17 36 -46 81 -66 101 -19 20 -43 60 -54 90 -12 35 -34 69 -65 101
-26 26 -54 60 -62 76 -8 16 -32 44 -53 62 -21 18 -54 57 -73 85 -19 29 -50 65
-68 80 -18 15 -39 40 -48 56 -12 25 -126 149 -182 199 -9 8 -28 28 -42 44 -59
67 -178 183 -210 205 -19 13 -53 42 -75 63 -66 64 -158 143 -190 163 -16 10
-46 33 -65 52 -70 66 -150 132 -178 147 -16 8 -35 22 -43 32 -8 9 -44 37 -81
61 -38 23 -68 47 -68 51 0 5 -12 15 -27 23 -16 7 -50 30 -77 51 -27 21 -52 38
-57 38 -5 0 -37 19 -72 43 -34 23 -96 62 -136 87 -40 25 -89 56 -109 69 -38
24 -47 30 -207 117 -124 67 -397 197 -515 244 -213 85 -212 85 -390 146 -25 9
-94 28 -155 44 -60 16 -123 34 -140 40 -16 6 -79 22 -140 35 -60 13 -141 31
-180 39 -38 8 -155 22 -260 31 -104 9 -219 20 -255 25 -203 30 -870 47 -1184
30z m934 -315 c825 -64 1610 -305 2345 -722 234 -133 255 -146 400 -243 516
-345 959 -749 1371 -1249 409 -498 766 -1161 989 -1836 50 -154 59 -191 47
-199 -17 -10 -3401 -11 -3411 -1 -6 6 -17 84 -25 175 -18 195 -40 354 -66 465
-29 124 -87 286 -119 331 -26 37 -31 57 -45 185 -20 168 -53 339 -103 529 -20
74 -42 162 -50 194 -8 33 -21 73 -30 89 -16 31 -267 291 -523 542 -184 181
-223 215 -244 215 -19 0 -87 -49 -151 -109 -83 -76 -269 -233 -306 -258 -33
-22 -42 -24 -71 -15 -44 14 -178 30 -316 38 -68 4 -115 12 -117 18 -2 6 -5
397 -8 869 -3 605 -7 861 -15 869 -14 14 -141 12 -397 -8 -534 -40 -992 -135
-1445 -299 -358 -130 -557 -220 -910 -414 -116 -64 -313 -189 -455 -288 -173
-121 -222 -157 -310 -228 -127 -102 -198 -167 -423 -389 -267 -263 -409 -425
-613 -697 -288 -384 -529 -814 -654 -1169 -67 -190 -99 -266 -127 -307 -15
-23 -35 -70 -44 -104 -34 -132 -115 -252 -159 -235 -19 7 -19 25 -1 119 17 89
146 458 211 602 129 289 139 310 303 600 101 179 288 454 455 670 277 356 595
690 877 921 41 34 107 88 147 120 62 51 117 92 336 249 223 160 760 450 1012
546 28 11 59 24 70 29 180 85 691 243 935 289 63 12 150 29 192 37 124 23 394
53 668 73 177 13 585 11 780 -4z m-1314 -2106 c139 -142 410 -348 547 -414 32
-16 62 -36 67 -46 11 -19 -28 -115 -108 -270 -27 -53 -64 -132 -81 -175 -18
-44 -57 -135 -88 -204 -69 -157 -64 -143 -115 -284 -24 -66 -66 -165 -94 -220
-56 -109 -55 -109 -165 -134 -75 -18 -316 -35 -417 -30 -73 4 -97 9 -115 25
-12 10 -34 24 -48 30 -21 9 -32 27 -49 79 -22 65 -23 78 -17 273 7 216 23 369
58 536 23 112 103 385 126 429 22 42 81 125 127 177 23 25 55 63 73 85 17 21
57 66 90 100 32 33 71 75 86 92 16 18 32 32 36 32 4 0 43 -36 87 -81z m1935
-11 c71 -79 169 -193 237 -275 105 -128 176 -337 227 -668 32 -208 39 -359 27
-523 -15 -184 -19 -190 -172 -254 -49 -20 -76 -23 -236 -26 -115 -2 -203 0
-238 8 -53 11 -60 16 -100 70 -58 80 -123 212 -206 415 -132 325 -152 371
-242 555 -92 189 -111 247 -87 267 8 6 50 29 94 53 124 65 344 221 435 308 19
19 55 50 80 70 25 21 51 45 58 55 25 33 55 20 123 -55z m-3687 -140 c40 -57
11 -98 -116 -161 l-63 -32 0 -65 c0 -58 -2 -65 -21 -68 -13 -2 -38 13 -70 41
-43 39 -49 49 -49 84 0 23 11 63 24 91 25 54 35 61 151 105 84 33 124 34 144
5z m-763 -720 c28 -30 119 -160 143 -205 17 -33 18 -39 4 -62 -23 -42 -63 -32
-120 29 -29 31 -54 50 -64 48 -25 -5 -70 -84 -123 -216 -53 -131 -82 -164
-125 -144 -29 13 -42 62 -32 116 8 42 190 402 219 434 12 12 32 22 48 22 16 0
37 -10 50 -22z m-2583 -1379 c2 -24 -3 -43 -17 -60 l-19 -24 -768 -4 c-423 -1
-778 -7 -791 -12 l-23 -9 0 -1459 c0 -803 3 -1466 6 -1475 5 -14 30 -16 173
-16 117 0 171 -4 179 -12 16 -16 16 -88 0 -93 -26 -7 -466 -13 -478 -5 -9 6
-12 344 -11 1600 1 876 4 1597 7 1601 3 5 394 8 872 7 l867 -3 3 -36z m13707
32 c11 -18 17 -3175 6 -3191 -9 -13 -47 -15 -263 -12 -184 2 -254 6 -260 15
-10 16 -10 41 2 71 l10 26 185 0 185 0 11 28 c17 43 26 2906 9 2927 -11 13
-100 15 -764 15 -619 0 -755 2 -771 14 -20 14 -44 83 -37 104 5 15 1677 18
1687 3z m-8085 -521 c133 -13 289 -54 395 -105 228 -109 363 -280 431 -545 29
-115 27 -434 -3 -541 -85 -301 -301 -512 -615 -603 -110 -31 -272 -50 -359
-42 -59 6 -70 5 -75 -9 -4 -9 -7 -158 -8 -330 -1 -207 -5 -318 -12 -325 -6 -6
-92 -11 -235 -13 l-224 -2 0 1245 0 1244 45 8 c113 21 521 32 660 18z m3275
-35 l210 -2 1 -1074 c1 -591 -2 -1148 -5 -1239 l-6 -165 -234 0 c-152 0 -235
4 -238 10 -2 6 -5 242 -6 525 l-2 515 -424 3 c-234 1 -429 -2 -433 -6 -5 -5
-8 -238 -8 -519 0 -400 -2 -512 -12 -520 -17 -13 -455 -10 -468 3 -7 7 -9 465
-8 1238 l3 1228 238 2 c130 0 237 -1 237 -4 0 -3 2 -219 3 -480 2 -262 7 -481
11 -488 10 -17 837 -17 854 0 9 9 12 131 12 488 0 503 1 509 45 494 11 -4 115
-8 230 -9z m-7508 -9 c7 -3 13 -14 13 -24 0 -18 80 -256 160 -472 23 -63 57
-155 75 -205 17 -49 144 -396 280 -770 136 -374 265 -727 285 -785 21 -58 46
-122 56 -143 14 -29 16 -42 8 -55 -10 -15 -37 -17 -268 -17 -216 0 -260 2
-271 15 -13 15 -45 107 -99 285 -16 50 -34 106 -41 125 -8 19 -19 52 -25 73
-7 23 -18 37 -28 37 -9 1 -197 1 -417 0 -458 -1 -413 10 -446 -105 -22 -75
-103 -338 -122 -393 -7 -19 -18 -37 -27 -41 -8 -4 -96 -4 -195 1 -99 5 -201 6
-226 3 -81 -10 -94 7 -63 81 9 22 55 147 101 279 88 249 156 439 166 465 3 8
13 35 21 60 8 25 31 90 51 145 20 55 74 208 121 340 47 132 89 249 94 260 32
79 204 570 250 710 18 55 36 109 40 120 7 19 16 20 250 18 134 -1 249 -4 257
-7z m2088 2 c3 -3 5 -458 5 -1012 l0 -1006 27 -1 c16 -1 163 0 327 1 l299 2
-7 -223 c-6 -192 -10 -226 -24 -237 -9 -7 -23 -9 -32 -5 -8 4 -258 8 -555 8
l-540 1 -3 1230 c-1 676 0 1234 2 1239 4 10 491 13 501 3z m7717 2 c12 0 21
-13 28 -42 17 -66 111 -333 258 -733 27 -72 298 -816 342 -940 10 -27 66 -180
123 -340 58 -159 114 -313 125 -340 33 -85 41 -82 -258 -80 -144 1 -265 6
-270 11 -5 5 -36 97 -70 204 -33 107 -67 211 -74 230 -8 19 -17 47 -20 61 -3
15 -11 28 -18 30 -7 2 -199 2 -427 -1 l-414 -5 -43 -145 c-54 -180 -104 -338
-117 -367 -10 -22 -11 -22 -258 -20 -162 2 -253 7 -260 14 -7 7 -3 28 16 72
14 34 43 112 64 174 21 62 59 168 83 237 113 314 157 438 171 480 8 25 22 63
30 85 31 83 97 266 162 450 37 105 71 199 75 210 18 44 43 113 60 165 10 30
37 107 60 170 66 182 130 376 130 392 0 8 4 18 9 24 6 5 106 8 243 6 128 -1
241 -2 250 -2z m206 -3042 c7 -7 12 -26 12 -44 0 -17 7 -37 15 -44 8 -7 15
-22 15 -34 0 -53 -67 -226 -150 -389 -59 -117 -68 -135 -183 -336 -61 -107
-243 -388 -319 -493 -212 -290 -350 -450 -643 -744 -439 -440 -752 -684 -1245
-969 -157 -91 -411 -221 -527 -270 -48 -20 -128 -54 -178 -75 -148 -63 -294
-117 -405 -150 -58 -17 -116 -35 -130 -40 -174 -61 -482 -131 -830 -189 -308
-52 -515 -71 -790 -75 -386 -5 -583 10 -1015 74 -195 29 -572 113 -725 162
-278 88 -367 121 -665 242 -380 156 -886 457 -1249 746 -407 324 -827 747
-1072 1080 -309 419 -446 638 -609 970 -37 74 -75 151 -85 170 -24 48 -68 177
-75 226 -9 50 12 73 49 56 21 -10 107 -169 147 -272 7 -19 23 -53 35 -75 241
-444 308 -553 494 -810 267 -369 649 -804 835 -951 28 -21 84 -68 126 -104
124 -106 225 -187 307 -246 42 -31 88 -65 102 -75 55 -42 386 -259 395 -259 3
0 38 -19 78 -43 331 -199 772 -390 1197 -520 238 -73 634 -164 835 -191 275
-38 661 -70 770 -64 l60 3 0 1220 c0 671 3 1225 8 1232 4 6 3 15 -3 18 -6 4
-30 -11 -54 -33 -71 -65 -100 -76 -196 -76 -130 0 -208 42 -268 144 -27 45
-27 47 -27 240 0 184 1 198 24 248 29 65 107 133 180 157 42 14 62 15 127 6
66 -10 85 -17 140 -56 37 -27 65 -41 69 -35 4 6 3 153 -1 328 -6 293 -6 319
10 335 16 16 179 17 2710 17 2080 0 2695 -3 2704 -12z m-7682 -579 c111 -20
189 -87 213 -184 14 -57 3 -80 -42 -89 -50 -9 -83 7 -106 53 -62 121 -196 122
-248 1 -20 -44 -21 -326 -2 -372 31 -75 179 -88 227 -20 27 38 34 85 17 109
-12 17 -22 19 -66 15 -43 -4 -55 -2 -66 13 -16 23 -17 87 -1 103 8 8 56 12
148 12 92 0 140 -4 148 -12 25 -25 6 -212 -28 -278 -49 -96 -131 -140 -261
-140 -102 0 -170 28 -223 93 -54 66 -66 122 -66 307 0 180 11 232 60 294 38
48 79 72 155 91 66 17 71 17 141 4z m1387 -3 c71 -17 132 -58 168 -114 37 -58
53 -176 47 -347 -4 -110 -8 -139 -27 -178 -29 -59 -89 -111 -160 -138 -140
-53 -329 22 -378 149 -15 40 -18 76 -17 232 1 208 7 242 62 302 50 56 86 79
145 93 69 17 92 17 160 1z m-608 -19 c43 -22 96 -77 112 -115 17 -40 19 -146
4 -186 -17 -44 -49 -84 -78 -98 -54 -27 -53 -36 26 -193 40 -81 70 -153 67
-161 -7 -18 -125 -20 -148 -1 -14 11 -128 256 -128 275 0 21 -43 52 -71 52
-67 0 -69 -5 -69 -168 0 -102 -4 -152 -12 -160 -7 -7 -38 -12 -70 -12 -46 0
-59 4 -67 19 -16 29 -5 752 11 763 7 5 99 7 203 5 147 -3 197 -7 220 -20z"/>
<path d="M8334 9498 c-5 -7 -7 -227 -4 -493 l5 -480 88 -3 c153 -5 282 43 377
139 71 71 108 149 127 266 13 81 13 105 0 191 -16 109 -33 153 -87 227 -68 92
-162 139 -315 155 -123 13 -181 12 -191 -2z"/>
<path d="M4047 9243 c-2 -4 -11 -30 -20 -58 -36 -114 -109 -353 -122 -395 -30
-105 -77 -249 -97 -298 -18 -45 -19 -55 -7 -63 8 -5 127 -9 265 -9 289 0 288
0 255 71 -11 24 -52 145 -91 269 -39 124 -75 236 -80 250 -18 52 -59 196 -62
215 -3 20 -32 33 -41 18z"/>
<path d="M13861 9238 c-4 -13 -16 -50 -26 -83 -9 -33 -21 -71 -25 -85 -5 -14
-27 -86 -50 -160 -23 -74 -64 -202 -91 -285 -28 -82 -51 -161 -52 -175 l-2
-25 269 -3 268 -2 -5 32 c-2 18 -23 85 -45 148 -56 159 -192 593 -192 613 0
47 -34 64 -49 25z"/>
<path d="M9102 6289 l-22 -8 2 -393 3 -392 50 -13 c62 -16 102 -16 111 -1 4 6
6 119 5 251 -2 172 1 237 9 232 6 -3 31 -37 55 -74 64 -97 76 -106 126 -95 40
9 41 11 71 89 29 74 42 94 61 95 4 0 7 -102 7 -227 0 -126 4 -234 8 -241 18
-28 149 -45 157 -19 8 25 13 683 6 731 -5 26 -14 52 -22 57 -21 13 -123 11
-142 -3 -17 -14 -137 -194 -137 -207 0 -4 -9 -16 -20 -26 -20 -18 -21 -18 -39
1 -10 10 -33 46 -51 79 -41 77 -95 151 -118 160 -25 11 -95 13 -120 4z"/>
<path d="M11110 6291 c-45 -9 -122 -61 -154 -104 -48 -64 -59 -118 -59 -307
-1 -162 0 -179 22 -227 28 -64 101 -134 164 -158 65 -25 194 -18 257 14 100
51 136 114 146 253 6 89 -5 165 -24 169 -32 7 -260 4 -269 -4 -8 -5 -13 -32
-13 -63 0 -61 13 -74 78 -74 22 0 45 -6 52 -15 29 -35 -32 -137 -89 -150 -17
-4 -45 1 -71 11 -66 26 -79 65 -82 250 -4 176 6 214 56 238 77 36 147 16 178
-51 28 -58 57 -74 128 -71 53 3 55 4 58 33 9 77 -66 183 -161 230 -57 27 -155
40 -217 26z"/>
<path d="M9892 6278 c-9 -9 -12 -108 -12 -385 l0 -373 23 -14 c28 -19 107 -37
132 -30 19 5 20 18 23 352 3 366 0 422 -24 447 -19 18 -124 21 -142 3z"/>
<path d="M10177 6283 c-4 -3 -7 -178 -7 -388 0 -327 2 -384 15 -395 21 -17
140 -26 149 -11 9 14 8 345 0 414 -8 59 11 64 42 9 11 -20 45 -77 74 -127 29
-49 64 -110 78 -135 14 -25 33 -57 43 -72 11 -14 19 -30 19 -35 0 -5 11 -20
25 -33 22 -20 36 -24 98 -24 l72 -1 2 379 c3 448 8 426 -91 426 -43 0 -67 -5
-76 -15 -8 -10 -11 -69 -9 -214 2 -110 0 -204 -4 -207 -12 -12 -38 19 -72 85
-62 124 -195 325 -225 341 -21 11 -123 14 -133 3z"/>
<path d="M8615 6146 c-63 -29 -76 -55 -85 -167 -10 -121 2 -271 24 -304 30
-46 135 -58 191 -21 55 36 60 56 60 237 0 153 -2 170 -21 195 -46 63 -113 86
-169 60z"/>
<path d="M7904 6141 c-66 -30 -74 -59 -73 -253 1 -89 4 -174 8 -188 16 -59
118 -88 195 -56 56 23 66 60 66 248 0 182 -8 209 -72 248 -41 25 -71 25 -124
1z"/>
<path d="M7171 6148 c-19 -7 -21 -15 -21 -102 0 -75 3 -95 15 -100 22 -8 164
3 198 16 74 28 55 169 -25 183 -57 10 -145 12 -167 3z"/>
</g>
</svg>
