<?xml version="1.0" standalone="no"?>
<!DOCTYPE svg PUBLIC "-//W3C//DTD SVG 20010904//EN"
 "http://www.w3.org/TR/2001/REC-SVG-20010904/DTD/svg10.dtd">
<svg version="1.0" xmlns="http://www.w3.org/2000/svg"
 width="512.000000pt" height="512.000000pt" viewBox="0 0 512.000000 512.000000"
 preserveAspectRatio="xMidYMid meet">
<metadata>
Created by potrace 1.14, written by Peter Selinger 2001-2017
</metadata>
<g transform="translate(0.000000,512.000000) scale(0.100000,-0.100000)"
fill="#000000" stroke="none">
<path d="M2441 3609 c-371 -43 -710 -307 -847 -658 l-28 -71 -182 0 c-162 0
-183 -2 -186 -17 -2 -9 -2 -159 0 -334 l3 -319 180 -2 180 -3 32 -75 c140
-322 438 -557 787 -621 97 -18 290 -15 390 6 339 69 622 295 767 611 l38 83
180 3 180 3 0 330 0 330 -184 5 -185 5 -21 55 c-141 363 -475 622 -865 670
-95 11 -133 11 -239 -1z m347 -93 c231 -59 449 -210 582 -402 51 -74 130 -237
130 -269 0 -13 -39 -15 -279 -15 l-279 0 -7 53 c-4 28 -12 63 -17 77 -6 14
-19 63 -29 110 -19 82 -21 86 -86 152 -37 38 -72 68 -78 68 -6 0 -24 -13 -40
-30 -18 -19 -39 -30 -56 -30 -59 0 -59 0 -59 156 l0 144 -62 2 -63 1 65 6 c82
8 197 -2 278 -23z m-349 10 c-2 -2 -26 -6 -54 -9 -34 -4 -42 -3 -25 3 25 8 87
13 79 6z m-112 -22 c-3 -3 -12 -4 -19 -1 -8 3 -5 6 6 6 11 1 17 -2 13 -5z
m-47 -14 c-8 -5 -22 -9 -30 -9 -10 0 -8 3 5 9 27 12 43 12 25 0z m-70 -25
c-14 -8 -29 -14 -35 -14 -5 0 1 6 15 14 14 8 30 14 35 14 6 0 -1 -6 -15 -14z
m-110 -49 c0 -1 -22 -17 -50 -34 -27 -17 -50 -29 -50 -26 0 4 90 64 97 64 2 0
3 -2 3 -4z m-110 -69 c0 -2 -10 -12 -22 -23 l-23 -19 19 23 c18 21 26 27 26
19z m-105 -99 c-32 -35 -68 -72 -79 -83 l-20 -20 19 25 c24 31 128 140 134
140 2 0 -22 -28 -54 -62z m588 -244 c-47 -106 -54 -114 -115 -114 -47 0 -61
24 -53 94 11 91 30 145 65 181 l32 33 57 -46 58 -46 -44 -102z m294 153 c38
-43 55 -106 51 -187 l-3 -65 -55 0 -55 0 -37 75 c-64 130 -64 123 -5 168 29
22 57 41 63 41 7 1 25 -14 41 -32z m-666 -18 c-24 -22 -37 -20 -28 6 4 8 16
15 29 15 l22 0 -23 -21z m-311 -3 c0 -2 -8 -10 -17 -17 -16 -13 -17 -12 -4 4
13 16 21 21 21 13z m-85 -136 c-14 -27 -28 -50 -30 -50 -3 0 6 23 20 50 14 28
28 50 30 50 3 0 -6 -22 -20 -50z m301 19 c19 -21 19 -22 -3 -15 -18 6 -25 2
-35 -18 -10 -22 -28 -36 -28 -21 0 11 34 75 40 75 4 0 15 -10 26 -21z m-588
-216 l-138 -4 0 -254 0 -254 33 -4 c29 -3 28 -4 -9 -5 l-41 -2 -2 245 c-1 135
1 254 4 265 6 19 15 20 148 18 l142 -2 -137 -3z m2452 0 c0 -5 -44 -7 -97 -5
-174 4 -191 8 -45 10 78 1 142 -1 142 -5z m-3 -350 c-1 -59 -3 -13 -3 102 0
116 2 164 3 108 2 -56 2 -151 0 -210z m-1331 266 c92 -23 136 -121 96 -212
-23 -51 -61 -77 -127 -86 l-40 -6 -3 -57 -3 -58 -34 0 -35 0 0 209 c0 209 0
210 23 214 42 8 78 7 123 -4z m-677 -197 c39 -108 71 -203 71 -210 0 -9 -13
-12 -42 -10 -39 3 -42 5 -52 43 l-12 40 -76 3 -76 3 -14 -43 c-12 -35 -20 -44
-42 -46 -58 -7 -57 -4 15 200 38 106 71 199 74 206 2 7 21 12 43 12 l39 0 72
-198z m281 28 l0 -170 55 0 55 0 0 -40 0 -40 -95 0 -95 0 0 210 0 210 40 0 40
0 0 -170z m722 88 l3 -83 73 -3 72 -3 0 86 0 85 40 0 40 0 0 -211 0 -210 -37
3 -38 3 -3 88 -3 87 -74 0 -75 0 0 -91 0 -90 -37 3 -38 3 -3 195 c-1 107 0
200 2 207 3 7 21 13 40 13 l35 0 3 -82z m656 -120 c40 -112 72 -207 72 -211 0
-5 -19 -7 -42 -5 -39 3 -42 5 -56 46 l-14 42 -73 0 -73 0 -14 -42 c-14 -41
-17 -43 -56 -46 -23 -2 -42 -1 -42 1 0 7 140 399 146 409 3 4 22 8 42 8 l37 0
73 -202z m335 -235 c-13 -2 -33 -2 -45 0 -13 2 -3 4 22 4 25 0 35 -2 23 -4z
m-377 -97 c14 -38 -105 -226 -209 -330 -349 -348 -893 -393 -1284 -105 -69 52
-148 130 -205 205 -46 60 -118 182 -118 200 0 5 15 -19 34 -52 122 -228 324
-401 563 -483 71 -24 216 -51 274 -51 l39 0 2 213 c2 116 1 258 -1 315 l-3
102 451 0 c375 0 453 -2 457 -14z m-1268 -104 c3 -11 0 -11 -16 -1 -30 19 -52
5 -52 -34 0 -38 21 -63 45 -53 18 7 20 32 3 39 -8 3 -6 6 5 6 25 1 23 -46 -3
-54 -35 -11 -60 12 -60 53 0 21 6 44 12 50 16 16 60 11 66 -6z m119 2 c3 -8 0
-26 -7 -38 -9 -18 -9 -29 -1 -45 7 -11 9 -21 7 -21 -3 0 -12 13 -20 28 -13 26
-13 31 1 44 19 20 9 38 -22 38 -21 0 -23 -4 -23 -51 -1 -28 -3 -54 -6 -57 -3
-3 -6 22 -6 56 l0 62 35 0 c23 0 38 -6 42 -16z m113 -3 c22 -43 2 -101 -35
-101 -38 0 -62 79 -33 108 18 18 56 14 68 -7z m118 7 c17 -17 15 -74 -4 -92
-35 -35 -74 -12 -74 44 0 41 14 60 45 60 12 0 26 -5 33 -12z"/>
<path d="M2462 2568 c3 -77 5 -83 26 -86 14 -2 33 7 52 27 58 57 31 141 -45
141 l-36 0 3 -82z"/>
<path d="M1724 2553 c-9 -32 -19 -64 -21 -70 -4 -9 8 -13 41 -13 25 0 46 4 46
8 0 12 -41 132 -46 132 -2 0 -11 -26 -20 -57z"/>
<path d="M3396 2598 c-3 -7 -11 -35 -20 -62 -9 -27 -16 -53 -16 -58 0 -4 21
-8 46 -8 51 0 49 -9 17 93 -16 49 -21 55 -27 35z"/>
<path d="M2590 2040 c0 -63 2 -70 20 -70 15 0 20 7 20 29 0 24 3 28 19 24 11
-3 21 -15 23 -27 3 -19 10 -21 76 -24 69 -3 72 -2 72 20 l0 22 16 -22 c20 -30
54 -29 54 1 1 20 2 20 11 4 17 -30 58 -40 86 -22 21 14 23 22 20 67 -3 28 -10
54 -18 59 -22 14 -65 10 -80 -7 -11 -14 -13 -14 -21 0 -15 26 -38 19 -38 -11
l0 -28 -23 27 c-17 21 -30 27 -62 26 -22 0 -43 -5 -47 -11 -6 -9 -8 -9 -8 1 0
18 -37 15 -50 -5 -10 -17 -10 -17 -20 0 -6 9 -20 17 -30 17 -18 0 -20 -7 -20
-70z m369 19 c-16 -10 -23 -4 -14 10 3 6 11 8 17 5 6 -4 5 -9 -3 -15z m1 -49
c0 -5 -2 -10 -4 -10 -3 0 -8 5 -11 10 -3 6 -1 10 4 10 6 0 11 -4 11 -10z"/>
<path d="M2376 2074 c-18 -48 9 -98 42 -77 36 22 26 93 -12 93 -13 0 -27 -7
-30 -16z"/>
<path d="M2494 2066 c-10 -43 3 -78 29 -74 19 3 22 9 22 48 0 39 -3 45 -22 48
-17 3 -24 -3 -29 -22z"/>
</g>
</svg>
